<svg xmlns="http://www.w3.org/2000/svg" data-name="Layer 1" viewBox="0 0 100 125" x="0px" y="0px"><title>17</title><g data-name="Group"><path data-name="Path" d="M35.5,94.2a3,3,0,0,0,3,3H61.4a3,3,0,0,0,3-3V82.6H35.5Z"/><path data-name="Compound Path" d="M68.5,27.8A27.5,27.5,0,0,0,46.8,21,27.8,27.8,0,0,0,22.4,45.6a27.2,27.2,0,0,0,9.8,24.2,9.1,9.1,0,0,1,3.3,6.6H64.5a9.1,9.1,0,0,1,3.1-6.2,27.9,27.9,0,0,0,1-42.3ZM46.7,65.3l1-13.5H43.5l2.7-14.4h8.2l-2.2,7.5h6.2Z"/><rect data-name="Path" x="47" y="2.8" width="6" height="12.28"/><rect data-name="Path" x="74" y="19.3" width="12.3" height="6" transform="translate(7.7 63.2) rotate(-45)"/><rect data-name="Path" x="16.9" y="16.2" width="6" height="12.28" transform="translate(-10 20.6) rotate(-45)"/></g><text x="0" y="115" fill="#000000" font-size="5px" font-weight="bold" font-family="'Helvetica Neue', Helvetica, Arial-Unicode, Arial, Sans-serif">Created by Aiden Icons</text><text x="0" y="120" fill="#000000" font-size="5px" font-weight="bold" font-family="'Helvetica Neue', Helvetica, Arial-Unicode, Arial, Sans-serif">from the Noun Project</text></svg>